{
    "asset" : {
        "generator" : "Khronos glTF Blender I/O v1.3.48",
        "version" : "2.0"
    },
    "scene" : 0,
    "scenes" : [
        {
            "name" : "Scene",
            "nodes" : [
                1
            ]
        }
    ],
    "nodes" : [
        {
            "mesh" : 0,
            "name" : "Body66",
            "scale" : [
                10,
                10,
                10
            ]
        },
        {
            "children" : [
                0
            ],
            "name" : "5 v1",
            "rotation" : [
                1,
                0,
                0,
                -1.6292068494294654e-07
            ],
            "scale" : [
                0.0010000000474974513,
                0.0010000000474974513,
                0.0010000000474974513
            ],
            "translation" : [
                0.06540705263614655,
                -0.0144121665507555,
                0
            ]
        }
    ],
    "meshes" : [
        {
            "name" : "body",
            "primitives" : [
                {
                    "attributes" : {
                        "POSITION" : 0,
                        "NORMAL" : 1,
                        "TEXCOORD_0" : 2
                    },
                    "indices" : 3
                }
            ]
        }
    ],
    "accessors" : [
        {
            "bufferView" : 0,
            "componentType" : 5126,
            "count" : 517,
            "max" : [
                -5.600562572479248,
                -0.0010000000474974513,
                0
            ],
            "min" : [
                -7.499000072479248,
                -2.874046802520752,
                -0.5
            ],
            "type" : "VEC3"
        },
        {
            "bufferView" : 1,
            "componentType" : 5126,
            "count" : 517,
            "type" : "VEC3"
        },
        {
            "bufferView" : 2,
            "componentType" : 5126,
            "count" : 517,
            "type" : "VEC2"
        },
        {
            "bufferView" : 3,
            "componentType" : 5123,
            "count" : 1818,
            "type" : "SCALAR"
        }
    ],
    "bufferViews" : [
        {
            "buffer" : 0,
            "byteLength" : 6204,
            "byteOffset" : 0
        },
        {
            "buffer" : 0,
            "byteLength" : 6204,
            "byteOffset" : 6204
        },
        {
            "buffer" : 0,
            "byteLength" : 4136,
            "byteOffset" : 12408
        },
        {
            "buffer" : 0,
            "byteLength" : 3636,
            "byteOffset" : 16544
        }
    ],
    "buffers" : [
        {
            "byteLength" : 20180,
            "uri" : "data:application/octet-stream;base64,"
        }
    ]
}
