{
    "asset" : {
        "generator" : "Khronos glTF Blender I/O v1.3.48",
        "version" : "2.0"
    },
    "scene" : 0,
    "scenes" : [
        {
            "name" : "Scene",
            "nodes" : [
                1
            ]
        }
    ],
    "nodes" : [
        {
            "mesh" : 0,
            "name" : "Body68",
            "rotation" : [
                0.7071068286895752,
                0,
                0,
                0.7071068286895752
            ],
            "scale" : [
                10,
                10,
                10
            ],
            "translation" : [
                66.10523223876953,
                0,
                14.171810150146484
            ]
        },
        {
            "children" : [
                0
            ],
            "name" : "7 v1",
            "rotation" : [
                0.7071068286895752,
                0,
                0,
                0.7071067094802856
            ],
            "scale" : [
                0.0010000000474974513,
                0.0010000000474974513,
                0.0010000000474974513
            ]
        }
    ],
    "meshes" : [
        {
            "name" : "body",
            "primitives" : [
                {
                    "attributes" : {
                        "POSITION" : 0,
                        "NORMAL" : 1,
                        "TEXCOORD_0" : 2
                    },
                    "indices" : 3
                }
            ]
        }
    ],
    "accessors" : [
        {
            "bufferView" : 0,
            "componentType" : 5126,
            "count" : 181,
            "max" : [
                -5.645484447479248,
                -0.0010000000474974513,
                0
            ],
            "min" : [
                -7.499000072479248,
                -2.827171802520752,
                -0.5
            ],
            "type" : "VEC3"
        },
        {
            "bufferView" : 1,
            "componentType" : 5126,
            "count" : 181,
            "type" : "VEC3"
        },
        {
            "bufferView" : 2,
            "componentType" : 5126,
            "count" : 181,
            "type" : "VEC2"
        },
        {
            "bufferView" : 3,
            "componentType" : 5123,
            "count" : 594,
            "type" : "SCALAR"
        }
    ],
    "bufferViews" : [
        {
            "buffer" : 0,
            "byteLength" : 2172,
            "byteOffset" : 0
        },
        {
            "buffer" : 0,
            "byteLength" : 2172,
            "byteOffset" : 2172
        },
        {
            "buffer" : 0,
            "byteLength" : 1448,
            "byteOffset" : 4344
        },
        {
            "buffer" : 0,
            "byteLength" : 1188,
            "byteOffset" : 5792
        }
    ],
    "buffers" : [
        {
            "byteLength" : 6980,
            "uri" : "data:application/octet-stream;base64,"
        }
    ]
}
